{"accessors":[{"bufferView":2,"componentType":5126,"count":692,"max":[0.07684960216283798,1,0.4912239909172058],"min":[-0.07684960216283798,-1,-0.4912239909172058],"type":"VEC3"},{"bufferView":2,"byteOffset":8304,"componentType":5126,"count":692,"max":[1,1,1],"min":[-1,-1,-1],"type":"VEC3"},{"bufferView":3,"componentType":5126,"count":692,"max":[0.9999999403953552,0.9855616092681885,1,1],"min":[-0.9999999403953552,-0.985561728477478,-1,-1],"type":"VEC4"},{"bufferView":1,"componentType":5126,"count":692,"max":[0.9904680252075195,0.9994999766349792],"min":[0.0005000000237487257,0.0005000000237487257],"type":"VEC2"},{"bufferView":0,"componentType":5125,"count":2628,"type":"SCALAR"}],"asset":{"extras":{"author":"Paul Subert (https://sketchfab.com/3dil15.subert)","license":"CC-BY-4.0 (http://creativecommons.org/licenses/by/4.0/)","source":"https://sketchfab.com/3d-models/billboard-advertisement-f43119ee406d43f48a8af54f45f80691","title":"Billboard advertisement"},"generator":"Sketchfab-12.65.0","version":"2.0"},"bufferViews":[{"buffer":0,"byteLength":10512,"name":"floatBufferViews","target":34963},{"buffer":0,"byteLength":5536,"byteOffset":10512,"byteStride":8,"name":"floatBufferViews","target":34962},{"buffer":0,"byteLength":16608,"byteOffset":16048,"byteStride":12,"name":"floatBufferViews","target":34962},{"buffer":0,"byteLength":11072,"byteOffset":32656,"byteStride":16,"name":"floatBufferViews","target":34962}],"buffers":[{"byteLength":43728,"uri":"data:application/octet-stream;base64,"}],"images":[{"uri":"data:application/octet-stream;base64,"},{"uri":"data:application/octet-stream;base64,"},{"uri":"data:application/octet-stream;base64,"},{"uri":"data:application/octet-stream;base64,"}],"materials":[{"doubleSided":true,"emissiveFactor":[1,1,1],"emissiveTexture":{"index":2},"name":"DefaultMaterial","normalTexture":{"index":3},"occlusionTexture":{"index":1},"pbrMetallicRoughness":{"baseColorTexture":{"index":0},"metallicRoughnessTexture":{"index":1}}}],"meshes":[{"name":"defaultMaterial","primitives":[{"attributes":{"NORMAL":1,"POSITION":0,"TANGENT":2,"TEXCOORD_0":3},"indices":4,"material":0,"mode":4}]}],"nodes":[{"children":[1],"matrix":[-2.220446049250313e-16,-6.123234262925839e-17,1,0,1,-1.6081226229577296e-16,2.2204460492503128e-16,0,1.6081226229577292e-16,1,6.123234262925839e-17,0,-0.0000010356307029724121,7.010550362452078e-9,-0.0000012751602298521902,1],"name":"Sketchfab_model"},{"children":[2],"matrix":[1,0,0,0,0,-4.371139006309477e-8,0.999999999999999,0,0,-0.999999999999999,-4.371139006309477e-8,0,0,0,0,1],"name":"Collada visual scene group"},{"children":[3],"name":"Box015"},{"mesh":0,"name":"defaultMaterial"}],"samplers":[{"magFilter":9729,"minFilter":9987,"wrapS":10497,"wrapT":10497}],"scene":0,"scenes":[{"name":"Sketchfab_Scene","nodes":[0]}],"textures":[{"sampler":0,"source":0},{"sampler":0,"source":1},{"sampler":0,"source":2},{"sampler":0,"source":3}]}